# xmcd CD database file
#
# Track frame offsets:
#	150
#	18548
#	37148
#	54174
#	71622
#	88402
#	117819
#	142419
#	169879
#	191480
#	221105
#	241920
#
# Disc length: 3479 seconds
#
# Revision: 0
# Processed by: cddbd v1.5.2PL0 Copyright (c) Steve Scherf et al.
# Submitted via: CDex 1.79
#
DISCID=b70d950c
DTITLE=Various Performers - Venus Jazz Bossa Cafe ~ Relaxin' Jazzy Bossa Feeling [CD2]
DYEAR=2012
DGENRE=Jazz
TTITLE0=Jardim - Lora Ann
TTITLE1=Choro - George Garzone
TTITLE2=Aqua De Mareo - Maucha Adnet
TTITLE3=Triste - Denny Zaitlin Trio
TTITLE4=Falando De Amor - Stefano Bollani Trio
TTITLE5=Don't Explain - Kenny Barron Trio
TTITLE6=Felicidade - Joe Beck
TTITLE7=Menina Moca - Lee Konitz
TTITLE8=Tristeza De Amor - Eddie Higgins Trio
TTITLE9=Once I Loved - Rob Agerbeek Trio
TTITLE10=Corcovado - Simone
TTITLE11=Carinhoso - Joel Frahm Quartet
EXTD=YEAR: 2012
EXTT0=
EXTT1=
EXTT2=
EXTT3=
EXTT4=
EXTT5=
EXTT6=
EXTT7=
EXTT8=
EXTT9=
EXTT10=
EXTT11=
PLAYORDER=
